<mxfile host="Electron" modified="2024-01-15T11:21:37.205Z" agent="Mozilla/5.0 (Macintosh; Intel Mac OS X 10_15_7) AppleWebKit/537.36 (KHTML, like Gecko) draw.io/22.1.16 Chrome/120.0.6099.109 Electron/28.1.0 Safari/537.36" etag="3nCGenbNiRLZoBhWGoFB" version="22.1.16" type="device" pages="2">
  <diagram name="C1 - Context" id="YDdPSD3se2xZk8TkOqUm">
    <mxGraphModel dx="1122" dy="907" grid="1" gridSize="10" guides="1" tooltips="1" connect="1" arrows="1" fold="1" page="1" pageScale="1" pageWidth="827" pageHeight="1169" math="0" shadow="0">
      <root>
        <mxCell id="0" />
        <mxCell id="1" parent="0" />
        <mxCell id="X13IO4CZXb-cII4390Pj-3" style="edgeStyle=orthogonalEdgeStyle;rounded=0;orthogonalLoop=1;jettySize=auto;html=1;entryX=0;entryY=0.25;entryDx=0;entryDy=0;entryPerimeter=0;" edge="1" parent="1" source="X13IO4CZXb-cII4390Pj-1" target="X13IO4CZXb-cII4390Pj-2">
          <mxGeometry relative="1" as="geometry">
            <Array as="points">
              <mxPoint x="540" y="190" />
              <mxPoint x="540" y="280" />
            </Array>
          </mxGeometry>
        </mxCell>
        <mxCell id="X13IO4CZXb-cII4390Pj-8" value="Browses&lt;br&gt;Anonomously" style="edgeLabel;html=1;align=center;verticalAlign=middle;resizable=0;points=[];" vertex="1" connectable="0" parent="X13IO4CZXb-cII4390Pj-3">
          <mxGeometry x="-0.0471" y="-1" relative="1" as="geometry">
            <mxPoint as="offset" />
          </mxGeometry>
        </mxCell>
        <object placeholders="1" c4Name="Visitor" c4Type="Person" c4Description="An unauthenticated visitor to the website." label="&lt;font style=&quot;font-size: 16px&quot;&gt;&lt;b&gt;%c4Name%&lt;/b&gt;&lt;/font&gt;&lt;div&gt;[%c4Type%]&lt;/div&gt;&lt;br&gt;&lt;div&gt;&lt;font style=&quot;font-size: 11px&quot;&gt;&lt;font color=&quot;#cccccc&quot;&gt;%c4Description%&lt;/font&gt;&lt;/div&gt;" id="X13IO4CZXb-cII4390Pj-1">
          <mxCell style="html=1;fontSize=11;dashed=0;whiteSpace=wrap;fillColor=#6C6477;strokeColor=#4D4D4D;fontColor=#ffffff;shape=mxgraph.c4.person2;align=center;metaEdit=1;points=[[0.5,0,0],[1,0.5,0],[1,0.75,0],[0.75,1,0],[0.5,1,0],[0.25,1,0],[0,0.75,0],[0,0.5,0]];resizable=0;" vertex="1" parent="1">
            <mxGeometry x="280" y="70" width="200" height="180" as="geometry" />
          </mxCell>
        </object>
        <object placeholders="1" c4Name="letsseethecode.com" c4Type="Software System" c4Description="The letsseethecode.com website." label="&lt;font style=&quot;font-size: 16px&quot;&gt;&lt;b&gt;%c4Name%&lt;/b&gt;&lt;/font&gt;&lt;div&gt;[%c4Type%]&lt;/div&gt;&lt;br&gt;&lt;div&gt;&lt;font style=&quot;font-size: 11px&quot;&gt;&lt;font color=&quot;#cccccc&quot;&gt;%c4Description%&lt;/font&gt;&lt;/div&gt;" id="X13IO4CZXb-cII4390Pj-2">
          <mxCell style="rounded=1;whiteSpace=wrap;html=1;labelBackgroundColor=none;fillColor=#1061B0;fontColor=#ffffff;align=center;arcSize=10;strokeColor=#0D5091;metaEdit=1;resizable=0;points=[[0.25,0,0],[0.5,0,0],[0.75,0,0],[1,0.25,0],[1,0.5,0],[1,0.75,0],[0.75,1,0],[0.5,1,0],[0.25,1,0],[0,0.75,0],[0,0.5,0],[0,0.25,0]];" vertex="1" parent="1">
            <mxGeometry x="601" y="250" width="240" height="120" as="geometry" />
          </mxCell>
        </object>
        <mxCell id="X13IO4CZXb-cII4390Pj-5" style="edgeStyle=orthogonalEdgeStyle;rounded=0;orthogonalLoop=1;jettySize=auto;html=1;" edge="1" parent="1" source="X13IO4CZXb-cII4390Pj-4" target="X13IO4CZXb-cII4390Pj-2">
          <mxGeometry relative="1" as="geometry">
            <Array as="points">
              <mxPoint x="901" y="310" />
              <mxPoint x="901" y="310" />
            </Array>
          </mxGeometry>
        </mxCell>
        <mxCell id="X13IO4CZXb-cII4390Pj-10" value="Manages&lt;br&gt;Events &amp;amp;&lt;br&gt;Attendees" style="edgeLabel;html=1;align=center;verticalAlign=middle;resizable=0;points=[];" vertex="1" connectable="0" parent="X13IO4CZXb-cII4390Pj-5">
          <mxGeometry x="0.025" relative="1" as="geometry">
            <mxPoint as="offset" />
          </mxGeometry>
        </mxCell>
        <object placeholders="1" c4Name="Administrator" c4Type="Person" c4Description="A member of the LSTC team." label="&lt;font style=&quot;font-size: 16px&quot;&gt;&lt;b&gt;%c4Name%&lt;/b&gt;&lt;/font&gt;&lt;div&gt;[%c4Type%]&lt;/div&gt;&lt;br&gt;&lt;div&gt;&lt;font style=&quot;font-size: 11px&quot;&gt;&lt;font color=&quot;#cccccc&quot;&gt;%c4Description%&lt;/font&gt;&lt;/div&gt;" id="X13IO4CZXb-cII4390Pj-4">
          <mxCell style="html=1;fontSize=11;dashed=0;whiteSpace=wrap;fillColor=#083F75;strokeColor=#06315C;fontColor=#ffffff;shape=mxgraph.c4.person2;align=center;metaEdit=1;points=[[0.5,0,0],[1,0.5,0],[1,0.75,0],[0.75,1,0],[0.5,1,0],[0.25,1,0],[0,0.75,0],[0,0.5,0]];resizable=0;" vertex="1" parent="1">
            <mxGeometry x="961" y="190" width="200" height="180" as="geometry" />
          </mxCell>
        </object>
        <object placeholders="1" c4Name="Member" c4Type="Person" c4Description="A visitor who has since registered with the website in order to attend meetings and earn rewards." label="&lt;font style=&quot;font-size: 16px&quot;&gt;&lt;b&gt;%c4Name%&lt;/b&gt;&lt;/font&gt;&lt;div&gt;[%c4Type%]&lt;/div&gt;&lt;br&gt;&lt;div&gt;&lt;font style=&quot;font-size: 11px&quot;&gt;&lt;font color=&quot;#cccccc&quot;&gt;%c4Description%&lt;/font&gt;&lt;/div&gt;" id="X13IO4CZXb-cII4390Pj-6">
          <mxCell style="html=1;fontSize=11;dashed=0;whiteSpace=wrap;fillColor=#6C6477;strokeColor=#4D4D4D;fontColor=#ffffff;shape=mxgraph.c4.person2;align=center;metaEdit=1;points=[[0.5,0,0],[1,0.5,0],[1,0.75,0],[0.75,1,0],[0.5,1,0],[0.25,1,0],[0,0.75,0],[0,0.5,0]];resizable=0;" vertex="1" parent="1">
            <mxGeometry x="280" y="310" width="200" height="180" as="geometry" />
          </mxCell>
        </object>
        <mxCell id="X13IO4CZXb-cII4390Pj-7" style="edgeStyle=orthogonalEdgeStyle;rounded=0;orthogonalLoop=1;jettySize=auto;html=1;entryX=0;entryY=0.75;entryDx=0;entryDy=0;entryPerimeter=0;" edge="1" parent="1" source="X13IO4CZXb-cII4390Pj-6" target="X13IO4CZXb-cII4390Pj-2">
          <mxGeometry relative="1" as="geometry">
            <Array as="points">
              <mxPoint x="541" y="430" />
              <mxPoint x="541" y="340" />
            </Array>
          </mxGeometry>
        </mxCell>
        <mxCell id="X13IO4CZXb-cII4390Pj-9" value="Registers&lt;br&gt;for Events" style="edgeLabel;html=1;align=center;verticalAlign=middle;resizable=0;points=[];" vertex="1" connectable="0" parent="X13IO4CZXb-cII4390Pj-7">
          <mxGeometry x="0.0286" y="1" relative="1" as="geometry">
            <mxPoint as="offset" />
          </mxGeometry>
        </mxCell>
        <mxCell id="0T57qZ8JNbdLDLrdQDxN-1" value="Legend" style="shape=table;startSize=30;container=1;collapsible=0;childLayout=tableLayout;fontSize=16;align=left;verticalAlign=top;fillColor=none;strokeColor=none;fontColor=#4D4D4D;fontStyle=1;spacingLeft=6;spacing=0;resizable=0;" vertex="1" parent="1">
          <mxGeometry x="40" y="40" width="180" height="210" as="geometry" />
        </mxCell>
        <mxCell id="0T57qZ8JNbdLDLrdQDxN-2" value="" style="shape=tableRow;horizontal=0;startSize=0;swimlaneHead=0;swimlaneBody=0;strokeColor=inherit;top=0;left=0;bottom=0;right=0;collapsible=0;dropTarget=0;fillColor=none;points=[[0,0.5],[1,0.5]];portConstraint=eastwest;fontSize=12;" vertex="1" parent="0T57qZ8JNbdLDLrdQDxN-1">
          <mxGeometry y="30" width="180" height="30" as="geometry" />
        </mxCell>
        <mxCell id="0T57qZ8JNbdLDLrdQDxN-3" value="Person" style="shape=partialRectangle;html=1;whiteSpace=wrap;connectable=0;strokeColor=inherit;overflow=hidden;fillColor=#1E4074;top=0;left=0;bottom=0;right=0;pointerEvents=1;fontSize=12;align=left;fontColor=#FFFFFF;gradientColor=none;spacingLeft=10;spacingRight=4;" vertex="1" parent="0T57qZ8JNbdLDLrdQDxN-2">
          <mxGeometry width="180" height="30" as="geometry">
            <mxRectangle width="180" height="30" as="alternateBounds" />
          </mxGeometry>
        </mxCell>
        <mxCell id="0T57qZ8JNbdLDLrdQDxN-4" value="" style="shape=tableRow;horizontal=0;startSize=0;swimlaneHead=0;swimlaneBody=0;strokeColor=inherit;top=0;left=0;bottom=0;right=0;collapsible=0;dropTarget=0;fillColor=none;points=[[0,0.5],[1,0.5]];portConstraint=eastwest;fontSize=12;" vertex="1" parent="0T57qZ8JNbdLDLrdQDxN-1">
          <mxGeometry y="60" width="180" height="30" as="geometry" />
        </mxCell>
        <mxCell id="0T57qZ8JNbdLDLrdQDxN-5" value="Software System" style="shape=partialRectangle;html=1;whiteSpace=wrap;connectable=0;strokeColor=inherit;overflow=hidden;fillColor=#3162AF;top=0;left=0;bottom=0;right=0;pointerEvents=1;fontSize=12;align=left;fontColor=#FFFFFF;gradientColor=none;spacingLeft=10;spacingRight=4;" vertex="1" parent="0T57qZ8JNbdLDLrdQDxN-4">
          <mxGeometry width="180" height="30" as="geometry">
            <mxRectangle width="180" height="30" as="alternateBounds" />
          </mxGeometry>
        </mxCell>
        <mxCell id="0T57qZ8JNbdLDLrdQDxN-6" value="" style="shape=tableRow;horizontal=0;startSize=0;swimlaneHead=0;swimlaneBody=0;strokeColor=inherit;top=0;left=0;bottom=0;right=0;collapsible=0;dropTarget=0;fillColor=none;points=[[0,0.5],[1,0.5]];portConstraint=eastwest;fontSize=12;" vertex="1" parent="0T57qZ8JNbdLDLrdQDxN-1">
          <mxGeometry y="90" width="180" height="30" as="geometry" />
        </mxCell>
        <mxCell id="0T57qZ8JNbdLDLrdQDxN-7" value="Container" style="shape=partialRectangle;html=1;whiteSpace=wrap;connectable=0;strokeColor=inherit;overflow=hidden;fillColor=#52a2d8;top=0;left=0;bottom=0;right=0;pointerEvents=1;fontSize=12;align=left;fontColor=#FFFFFF;gradientColor=none;spacingLeft=10;spacingRight=4;" vertex="1" parent="0T57qZ8JNbdLDLrdQDxN-6">
          <mxGeometry width="180" height="30" as="geometry">
            <mxRectangle width="180" height="30" as="alternateBounds" />
          </mxGeometry>
        </mxCell>
        <mxCell id="0T57qZ8JNbdLDLrdQDxN-8" value="" style="shape=tableRow;horizontal=0;startSize=0;swimlaneHead=0;swimlaneBody=0;strokeColor=inherit;top=0;left=0;bottom=0;right=0;collapsible=0;dropTarget=0;fillColor=none;points=[[0,0.5],[1,0.5]];portConstraint=eastwest;fontSize=12;" vertex="1" parent="0T57qZ8JNbdLDLrdQDxN-1">
          <mxGeometry y="120" width="180" height="30" as="geometry" />
        </mxCell>
        <mxCell id="0T57qZ8JNbdLDLrdQDxN-9" value="Component" style="shape=partialRectangle;html=1;whiteSpace=wrap;connectable=0;strokeColor=inherit;overflow=hidden;fillColor=#7dbef2;top=0;left=0;bottom=0;right=0;pointerEvents=1;fontSize=12;align=left;fontColor=#FFFFFF;gradientColor=none;spacingLeft=10;spacingRight=4;" vertex="1" parent="0T57qZ8JNbdLDLrdQDxN-8">
          <mxGeometry width="180" height="30" as="geometry">
            <mxRectangle width="180" height="30" as="alternateBounds" />
          </mxGeometry>
        </mxCell>
        <mxCell id="0T57qZ8JNbdLDLrdQDxN-10" value="" style="shape=tableRow;horizontal=0;startSize=0;swimlaneHead=0;swimlaneBody=0;strokeColor=inherit;top=0;left=0;bottom=0;right=0;collapsible=0;dropTarget=0;fillColor=none;points=[[0,0.5],[1,0.5]];portConstraint=eastwest;fontSize=12;" vertex="1" parent="0T57qZ8JNbdLDLrdQDxN-1">
          <mxGeometry y="150" width="180" height="30" as="geometry" />
        </mxCell>
        <mxCell id="0T57qZ8JNbdLDLrdQDxN-11" value="External Person" style="shape=partialRectangle;html=1;whiteSpace=wrap;connectable=0;strokeColor=inherit;overflow=hidden;fillColor=#6b6477;top=0;left=0;bottom=0;right=0;pointerEvents=1;fontSize=12;align=left;fontColor=#FFFFFF;gradientColor=none;spacingLeft=10;spacingRight=4;" vertex="1" parent="0T57qZ8JNbdLDLrdQDxN-10">
          <mxGeometry width="180" height="30" as="geometry">
            <mxRectangle width="180" height="30" as="alternateBounds" />
          </mxGeometry>
        </mxCell>
        <mxCell id="0T57qZ8JNbdLDLrdQDxN-12" value="" style="shape=tableRow;horizontal=0;startSize=0;swimlaneHead=0;swimlaneBody=0;strokeColor=inherit;top=0;left=0;bottom=0;right=0;collapsible=0;dropTarget=0;fillColor=none;points=[[0,0.5],[1,0.5]];portConstraint=eastwest;fontSize=12;" vertex="1" parent="0T57qZ8JNbdLDLrdQDxN-1">
          <mxGeometry y="180" width="180" height="30" as="geometry" />
        </mxCell>
        <mxCell id="0T57qZ8JNbdLDLrdQDxN-13" value="External Software System" style="shape=partialRectangle;html=1;whiteSpace=wrap;connectable=0;strokeColor=inherit;overflow=hidden;fillColor=#8b8496;top=0;left=0;bottom=0;right=0;pointerEvents=1;fontSize=12;align=left;fontColor=#FFFFFF;gradientColor=none;spacingLeft=10;spacingRight=4;" vertex="1" parent="0T57qZ8JNbdLDLrdQDxN-12">
          <mxGeometry width="180" height="30" as="geometry">
            <mxRectangle width="180" height="30" as="alternateBounds" />
          </mxGeometry>
        </mxCell>
      </root>
    </mxGraphModel>
  </diagram>
  <diagram id="ReSYRLOgtGnBSo8PQKZ0" name="C2 - website">
    <mxGraphModel dx="2291" dy="1734" grid="1" gridSize="10" guides="1" tooltips="1" connect="1" arrows="1" fold="1" page="1" pageScale="1" pageWidth="1169" pageHeight="827" math="0" shadow="0">
      <root>
        <mxCell id="0" />
        <mxCell id="1" parent="0" />
        <object placeholders="1" c4Name="letsseethecode.com" c4Type="SystemScopeBoundary" c4Application="Software System" label="&lt;font style=&quot;font-size: 16px&quot;&gt;&lt;b&gt;&lt;div style=&quot;text-align: left&quot;&gt;%c4Name%&lt;/div&gt;&lt;/b&gt;&lt;/font&gt;&lt;div style=&quot;text-align: left&quot;&gt;[%c4Application%]&lt;/div&gt;" id="FRCarvuMjc1ZlPPhJh6M-1">
          <mxCell style="rounded=1;fontSize=11;whiteSpace=wrap;html=1;dashed=1;arcSize=20;fillColor=none;strokeColor=#666666;fontColor=#333333;labelBackgroundColor=none;align=left;verticalAlign=bottom;labelBorderColor=none;spacingTop=0;spacing=10;dashPattern=8 4;metaEdit=1;rotatable=0;perimeter=rectanglePerimeter;noLabel=0;labelPadding=0;allowArrows=0;connectable=0;expand=0;recursiveResize=0;editable=1;pointerEvents=0;absoluteArcSize=1;points=[[0.25,0,0],[0.5,0,0],[0.75,0,0],[1,0.25,0],[1,0.5,0],[1,0.75,0],[0.75,1,0],[0.5,1,0],[0.25,1,0],[0,0.75,0],[0,0.5,0],[0,0.25,0]];" vertex="1" parent="1">
            <mxGeometry x="200" y="-40" width="400" height="840" as="geometry" />
          </mxCell>
        </object>
        <mxCell id="FRCarvuMjc1ZlPPhJh6M-5" style="edgeStyle=orthogonalEdgeStyle;rounded=0;orthogonalLoop=1;jettySize=auto;html=1;jumpStyle=gap;" edge="1" parent="1" source="FRCarvuMjc1ZlPPhJh6M-2" target="FRCarvuMjc1ZlPPhJh6M-3">
          <mxGeometry relative="1" as="geometry" />
        </mxCell>
        <mxCell id="CcHhyitPXzlACJuDONRe-12" style="edgeStyle=orthogonalEdgeStyle;rounded=0;orthogonalLoop=1;jettySize=auto;html=1;jumpStyle=gap;" edge="1" parent="1" source="FRCarvuMjc1ZlPPhJh6M-2" target="FRCarvuMjc1ZlPPhJh6M-4">
          <mxGeometry relative="1" as="geometry">
            <Array as="points">
              <mxPoint x="400" y="150" />
              <mxPoint x="400" y="150" />
            </Array>
          </mxGeometry>
        </mxCell>
        <mxCell id="Wos_dJsIG_1WN2IQN5VY-1" value="Authenticates&lt;br&gt;via" style="edgeLabel;html=1;align=center;verticalAlign=middle;resizable=0;points=[];" vertex="1" connectable="0" parent="CcHhyitPXzlACJuDONRe-12">
          <mxGeometry x="0.025" relative="1" as="geometry">
            <mxPoint as="offset" />
          </mxGeometry>
        </mxCell>
        <object placeholders="1" c4Name="LSTC Website" c4Type="RUST WebASM" c4Description="Rust WebAssembly hosted from S3 bucket." label="&lt;font style=&quot;font-size: 16px&quot;&gt;&lt;b&gt;%c4Name%&lt;/b&gt;&lt;/font&gt;&lt;div&gt;[%c4Type%]&lt;/div&gt;&lt;br&gt;&lt;div&gt;&lt;font style=&quot;font-size: 11px&quot;&gt;&lt;font color=&quot;#cccccc&quot;&gt;%c4Description%&lt;/font&gt;&lt;/div&gt;" id="FRCarvuMjc1ZlPPhJh6M-2">
          <mxCell style="rounded=1;whiteSpace=wrap;html=1;labelBackgroundColor=none;fillColor=#1061B0;fontColor=#ffffff;align=center;arcSize=10;strokeColor=#0D5091;metaEdit=1;resizable=0;points=[[0.25,0,0],[0.5,0,0],[0.75,0,0],[1,0.25,0],[1,0.5,0],[1,0.75,0],[0.75,1,0],[0.5,1,0],[0.25,1,0],[0,0.75,0],[0,0.5,0],[0,0.25,0]];" vertex="1" parent="1">
            <mxGeometry x="280" y="200" width="240" height="120" as="geometry" />
          </mxCell>
        </object>
        <mxCell id="FRCarvuMjc1ZlPPhJh6M-6" style="edgeStyle=orthogonalEdgeStyle;rounded=0;orthogonalLoop=1;jettySize=auto;html=1;jumpStyle=gap;" edge="1" parent="1" source="FRCarvuMjc1ZlPPhJh6M-3" target="FRCarvuMjc1ZlPPhJh6M-4">
          <mxGeometry relative="1" as="geometry">
            <Array as="points">
              <mxPoint x="560" y="460" />
              <mxPoint x="560" y="80" />
            </Array>
          </mxGeometry>
        </mxCell>
        <mxCell id="Wos_dJsIG_1WN2IQN5VY-2" value="Authenticates&lt;br&gt;via" style="edgeLabel;html=1;align=center;verticalAlign=middle;resizable=0;points=[];" vertex="1" connectable="0" parent="FRCarvuMjc1ZlPPhJh6M-6">
          <mxGeometry x="0.487" y="2" relative="1" as="geometry">
            <mxPoint as="offset" />
          </mxGeometry>
        </mxCell>
        <object placeholders="1" c4Name="LSTC API" c4Type="Software System" c4Description="Backend API, hosted in AWS ECS" label="&lt;font style=&quot;font-size: 16px&quot;&gt;&lt;b&gt;%c4Name%&lt;/b&gt;&lt;/font&gt;&lt;div&gt;[%c4Type%]&lt;/div&gt;&lt;br&gt;&lt;div&gt;&lt;font style=&quot;font-size: 11px&quot;&gt;&lt;font color=&quot;#cccccc&quot;&gt;%c4Description%&lt;/font&gt;&lt;/div&gt;" id="FRCarvuMjc1ZlPPhJh6M-3">
          <mxCell style="rounded=1;whiteSpace=wrap;html=1;labelBackgroundColor=none;fillColor=#1061B0;fontColor=#ffffff;align=center;arcSize=10;strokeColor=#0D5091;metaEdit=1;resizable=0;points=[[0.25,0,0],[0.5,0,0],[0.75,0,0],[1,0.25,0],[1,0.5,0],[1,0.75,0],[0.75,1,0],[0.5,1,0],[0.25,1,0],[0,0.75,0],[0,0.5,0],[0,0.25,0]];" vertex="1" parent="1">
            <mxGeometry x="280" y="400" width="240" height="120" as="geometry" />
          </mxCell>
        </object>
        <object placeholders="1" c4Name="Identity Provider" c4Type="AWS Cognito" c4Description="Description of external software system." label="&lt;font style=&quot;font-size: 16px&quot;&gt;&lt;b&gt;%c4Name%&lt;/b&gt;&lt;/font&gt;&lt;div&gt;[%c4Type%]&lt;/div&gt;&lt;br&gt;&lt;div&gt;&lt;font style=&quot;font-size: 11px&quot;&gt;&lt;font color=&quot;#cccccc&quot;&gt;%c4Description%&lt;/font&gt;&lt;/div&gt;" id="FRCarvuMjc1ZlPPhJh6M-4">
          <mxCell style="rounded=1;whiteSpace=wrap;html=1;labelBackgroundColor=none;fillColor=#8C8496;fontColor=#ffffff;align=center;arcSize=10;strokeColor=#736782;metaEdit=1;resizable=0;points=[[0.25,0,0],[0.5,0,0],[0.75,0,0],[1,0.25,0],[1,0.5,0],[1,0.75,0],[0.75,1,0],[0.5,1,0],[0.25,1,0],[0,0.75,0],[0,0.5,0],[0,0.25,0]];" vertex="1" parent="1">
            <mxGeometry x="280" width="240" height="120" as="geometry" />
          </mxCell>
        </object>
        <object placeholders="1" c4Type="LSTC Table" c4Container="Container" c4Technology="DynamoDB" c4Description="Single DynamoDB table that underpins the whole website." label="&lt;font style=&quot;font-size: 16px&quot;&gt;&lt;b&gt;%c4Type%&lt;/b&gt;&lt;/font&gt;&lt;div&gt;[%c4Container%:&amp;nbsp;%c4Technology%]&lt;/div&gt;&lt;br&gt;&lt;div&gt;&lt;font style=&quot;font-size: 11px&quot;&gt;&lt;font color=&quot;#E6E6E6&quot;&gt;%c4Description%&lt;/font&gt;&lt;/div&gt;" id="FRCarvuMjc1ZlPPhJh6M-7">
          <mxCell style="shape=cylinder3;size=15;whiteSpace=wrap;html=1;boundedLbl=1;rounded=0;labelBackgroundColor=none;fillColor=#23A2D9;fontSize=12;fontColor=#ffffff;align=center;strokeColor=#0E7DAD;metaEdit=1;points=[[0.5,0,0],[1,0.25,0],[1,0.5,0],[1,0.75,0],[0.5,1,0],[0,0.75,0],[0,0.5,0],[0,0.25,0]];resizable=0;" vertex="1" parent="1">
            <mxGeometry x="280" y="600" width="240" height="120" as="geometry" />
          </mxCell>
        </object>
        <mxCell id="FRCarvuMjc1ZlPPhJh6M-8" style="edgeStyle=orthogonalEdgeStyle;rounded=0;orthogonalLoop=1;jettySize=auto;html=1;jumpStyle=gap;" edge="1" parent="1" source="FRCarvuMjc1ZlPPhJh6M-3" target="FRCarvuMjc1ZlPPhJh6M-7">
          <mxGeometry relative="1" as="geometry" />
        </mxCell>
        <mxCell id="CcHhyitPXzlACJuDONRe-1" style="edgeStyle=orthogonalEdgeStyle;rounded=0;orthogonalLoop=1;jettySize=auto;html=1;jumpStyle=gap;" edge="1" parent="1" source="CcHhyitPXzlACJuDONRe-3" target="FRCarvuMjc1ZlPPhJh6M-2">
          <mxGeometry relative="1" as="geometry">
            <Array as="points">
              <mxPoint x="140" y="460" />
              <mxPoint x="140" y="280" />
            </Array>
            <mxPoint x="191" y="-10" as="targetPoint" />
          </mxGeometry>
        </mxCell>
        <mxCell id="CcHhyitPXzlACJuDONRe-2" value="Browses&lt;br&gt;Anonomously" style="edgeLabel;html=1;align=center;verticalAlign=middle;resizable=0;points=[];" vertex="1" connectable="0" parent="CcHhyitPXzlACJuDONRe-1">
          <mxGeometry x="-0.0471" y="-1" relative="1" as="geometry">
            <mxPoint y="41" as="offset" />
          </mxGeometry>
        </mxCell>
        <object placeholders="1" c4Name="Visitor" c4Type="Person" c4Description="An unauthenticated visitor to the website." label="&lt;font style=&quot;font-size: 16px&quot;&gt;&lt;b&gt;%c4Name%&lt;/b&gt;&lt;/font&gt;&lt;div&gt;[%c4Type%]&lt;/div&gt;&lt;br&gt;&lt;div&gt;&lt;font style=&quot;font-size: 11px&quot;&gt;&lt;font color=&quot;#cccccc&quot;&gt;%c4Description%&lt;/font&gt;&lt;/div&gt;" id="CcHhyitPXzlACJuDONRe-3">
          <mxCell style="html=1;fontSize=11;dashed=0;whiteSpace=wrap;fillColor=#6C6477;strokeColor=#4D4D4D;fontColor=#ffffff;shape=mxgraph.c4.person2;align=center;metaEdit=1;points=[[0.5,0,0],[1,0.5,0],[1,0.75,0],[0.75,1,0],[0.5,1,0],[0.25,1,0],[0,0.75,0],[0,0.5,0]];resizable=0;" vertex="1" parent="1">
            <mxGeometry x="-120" y="340" width="200" height="180" as="geometry" />
          </mxCell>
        </object>
        <mxCell id="CcHhyitPXzlACJuDONRe-5" style="edgeStyle=orthogonalEdgeStyle;rounded=0;orthogonalLoop=1;jettySize=auto;html=1;jumpStyle=gap;" edge="1" parent="1" source="CcHhyitPXzlACJuDONRe-7" target="FRCarvuMjc1ZlPPhJh6M-2">
          <mxGeometry relative="1" as="geometry">
            <Array as="points">
              <mxPoint x="820" y="240" />
            </Array>
            <mxPoint x="750" y="120" as="sourcePoint" />
            <mxPoint x="450" y="240" as="targetPoint" />
          </mxGeometry>
        </mxCell>
        <mxCell id="CcHhyitPXzlACJuDONRe-6" value="Manages&lt;br&gt;Events &amp;amp;&lt;br&gt;Attendees" style="edgeLabel;html=1;align=center;verticalAlign=middle;resizable=0;points=[];" vertex="1" connectable="0" parent="CcHhyitPXzlACJuDONRe-5">
          <mxGeometry x="0.025" relative="1" as="geometry">
            <mxPoint x="-65" as="offset" />
          </mxGeometry>
        </mxCell>
        <mxCell id="CcHhyitPXzlACJuDONRe-11" style="edgeStyle=orthogonalEdgeStyle;rounded=0;orthogonalLoop=1;jettySize=auto;html=1;jumpStyle=gap;" edge="1" parent="1" source="CcHhyitPXzlACJuDONRe-7" target="FRCarvuMjc1ZlPPhJh6M-4">
          <mxGeometry relative="1" as="geometry">
            <mxPoint x="920" y="-80" as="sourcePoint" />
            <mxPoint x="520" y="-80" as="targetPoint" />
            <Array as="points">
              <mxPoint x="610" y="40" />
              <mxPoint x="610" y="40" />
            </Array>
          </mxGeometry>
        </mxCell>
        <mxCell id="CcHhyitPXzlACJuDONRe-16" value="Authenticates&lt;br&gt;via" style="edgeLabel;html=1;align=center;verticalAlign=middle;resizable=0;points=[];" vertex="1" connectable="0" parent="CcHhyitPXzlACJuDONRe-11">
          <mxGeometry x="-0.4" relative="1" as="geometry">
            <mxPoint as="offset" />
          </mxGeometry>
        </mxCell>
        <object placeholders="1" c4Name="Administrator" c4Type="Person" c4Description="A member of the LSTC team." label="&lt;font style=&quot;font-size: 16px&quot;&gt;&lt;b&gt;%c4Name%&lt;/b&gt;&lt;/font&gt;&lt;div&gt;[%c4Type%]&lt;/div&gt;&lt;br&gt;&lt;div&gt;&lt;font style=&quot;font-size: 11px&quot;&gt;&lt;font color=&quot;#cccccc&quot;&gt;%c4Description%&lt;/font&gt;&lt;/div&gt;" id="CcHhyitPXzlACJuDONRe-7">
          <mxCell style="html=1;fontSize=11;dashed=0;whiteSpace=wrap;fillColor=#083F75;strokeColor=#06315C;fontColor=#ffffff;shape=mxgraph.c4.person2;align=center;metaEdit=1;points=[[0.5,0,0],[1,0.5,0],[1,0.75,0],[0.75,1,0],[0.5,1,0],[0.25,1,0],[0,0.75,0],[0,0.5,0]];resizable=0;" vertex="1" parent="1">
            <mxGeometry x="720" y="-60" width="200" height="180" as="geometry" />
          </mxCell>
        </object>
        <mxCell id="CcHhyitPXzlACJuDONRe-15" style="edgeStyle=orthogonalEdgeStyle;rounded=0;orthogonalLoop=1;jettySize=auto;html=1;jumpStyle=gap;" edge="1" parent="1" source="CcHhyitPXzlACJuDONRe-8" target="FRCarvuMjc1ZlPPhJh6M-4">
          <mxGeometry relative="1" as="geometry">
            <mxPoint x="20" y="70" as="sourcePoint" />
            <Array as="points">
              <mxPoint x="160" y="60" />
              <mxPoint x="160" y="60" />
            </Array>
          </mxGeometry>
        </mxCell>
        <mxCell id="CcHhyitPXzlACJuDONRe-17" value="Authenticates&lt;br&gt;via" style="edgeLabel;html=1;align=center;verticalAlign=middle;resizable=0;points=[];" vertex="1" connectable="0" parent="CcHhyitPXzlACJuDONRe-15">
          <mxGeometry x="-0.4" y="1" relative="1" as="geometry">
            <mxPoint as="offset" />
          </mxGeometry>
        </mxCell>
        <object placeholders="1" c4Name="Member" c4Type="Person" c4Description="A visitor who has since registered with the website in order to attend meetings and earn rewards." label="&lt;font style=&quot;font-size: 16px&quot;&gt;&lt;b&gt;%c4Name%&lt;/b&gt;&lt;/font&gt;&lt;div&gt;[%c4Type%]&lt;/div&gt;&lt;br&gt;&lt;div&gt;&lt;font style=&quot;font-size: 11px&quot;&gt;&lt;font color=&quot;#cccccc&quot;&gt;%c4Description%&lt;/font&gt;&lt;/div&gt;" id="CcHhyitPXzlACJuDONRe-8">
          <mxCell style="html=1;fontSize=11;dashed=0;whiteSpace=wrap;fillColor=#6C6477;strokeColor=#4D4D4D;fontColor=#ffffff;shape=mxgraph.c4.person2;align=center;metaEdit=1;points=[[0.5,0,0],[1,0.5,0],[1,0.75,0],[0.75,1,0],[0.5,1,0],[0.25,1,0],[0,0.75,0],[0,0.5,0]];resizable=0;" vertex="1" parent="1">
            <mxGeometry x="-120" y="-40" width="200" height="180" as="geometry" />
          </mxCell>
        </object>
        <mxCell id="CcHhyitPXzlACJuDONRe-9" style="edgeStyle=orthogonalEdgeStyle;rounded=0;orthogonalLoop=1;jettySize=auto;html=1;jumpStyle=gap;" edge="1" parent="1" source="CcHhyitPXzlACJuDONRe-8" target="FRCarvuMjc1ZlPPhJh6M-2">
          <mxGeometry relative="1" as="geometry">
            <Array as="points">
              <mxPoint x="140" y="100" />
              <mxPoint x="140" y="240" />
            </Array>
            <mxPoint x="191" y="50" as="targetPoint" />
          </mxGeometry>
        </mxCell>
        <mxCell id="CcHhyitPXzlACJuDONRe-10" value="Registers&lt;br&gt;for Events" style="edgeLabel;html=1;align=center;verticalAlign=middle;resizable=0;points=[];" vertex="1" connectable="0" parent="CcHhyitPXzlACJuDONRe-9">
          <mxGeometry x="0.0286" y="1" relative="1" as="geometry">
            <mxPoint y="-34" as="offset" />
          </mxGeometry>
        </mxCell>
      </root>
    </mxGraphModel>
  </diagram>
</mxfile>
